# xmcd CD database file
#
# Track frame offsets:
#	150
#	15652
#	33947
#	49895
#	77702
#	96625
#	117240
#	133460
#	155809
#	173894
#	192572
#	212462
#	234232
#	254897
#	277057
#	312077
#
# Disc length: 4439 seconds
#
# Revision: 0
# Processed by: cddbd v1.4PL0 Copyright (c) Steve Scherf et al.
# Submitted via: CDex 1.51
#
DISCID=ef115510
DTITLE=Barry White - The Ultimate Collection
DYEAR=1900
DGENRE=Jazz
TTITLE0=You're The First, The Last, MY Everything
TTITLE1=Can't Get Enough Of Your Love Babe
TTITLE2=Let The Music Play
TTITLE3=Change
TTITLE4=I'll Do For You Anything You Want Me To
TTITLE5=Sho'You Right
TTITLE6=What Am I Gonna Do With You
TTITLE7=Come On
TTITLE8=I'm Gonna Love You Just A Little More Babe
TTITLE9=Never, Never Gonna Give You Up
TTITLE10=Baby We Better Try And Get It Together
TTITLE11=Just The Way You Are
TTITLE12=All Around The World
TTITLE13=Dark And Lovely (You Over There) "Edit"
TTITLE14=Love's Interlude - Good Night My Love
TTITLE15=Thank You For Letting Me Be Myself (Again)
EXTD=
EXTT0=
EXTT1=
EXTT2=
EXTT3=
EXTT4=
EXTT5=
EXTT6=
EXTT7=
EXTT8=
EXTT9=
EXTT10=
EXTT11=
EXTT12=
EXTT13=
EXTT14=
EXTT15=
PLAYORDER=
